<?xml version="1.0" encoding="utf-8"?>
<!-- Generator: Adobe Illustrator 26.0.1, SVG Export Plug-In . SVG Version: 6.00 Build 0)  -->
<svg version="1.1" id="Layer_1" xmlns="http://www.w3.org/2000/svg" xmlns:xlink="http://www.w3.org/1999/xlink" x="0px" y="0px"
	 viewBox="0 0 1200 627" style="enable-background:new 0 0 1200 627;" xml:space="preserve">
<style type="text/css">
	.st0{fill:#FFFFFF;}
	.st1{fill:none;stroke:#E28107;stroke-miterlimit:10;}
	.st2{fill:#E28107;}
	.st3{font-family:'MyriadPro-Regular';}
	.st4{font-size:11px;}
	.st5{fill:none;stroke:#438DCC;stroke-miterlimit:10;}
	.st6{fill:#438DCC;}
	.st7{fill:none;stroke:#000000;stroke-miterlimit:10;}
	.st8{fill:#FFFFFF;stroke:#000000;stroke-miterlimit:10;}
	.st9{font-family:'SansSerifCollection';}
	.st10{font-size:19.8333px;}
	.st11{fill:#FFFFFF;stroke:#56B038;stroke-miterlimit:10;}
	.st12{fill:#56B038;}
	.st13{letter-spacing:26;}
	.st14{fill:none;stroke:#AFAFAF;stroke-miterlimit:10;}
	.st15{font-size:12px;}
	.st16{font-size:24px;}
	.st17{fill:#AFAFAF;stroke:#AFAFAF;stroke-miterlimit:10;}
	.st18{font-size:14px;}
	.st19{font-size:15px;}
</style>
<rect class="st0" width="1200" height="627"/>
<g>
	<g>
		<g>
			<rect x="765.16" y="149.9" class="st1" width="58.29" height="36.05"/>
			<rect x="765.16" y="142.02" class="st1" width="20.91" height="7.89"/>
		</g>
	</g>
	<text transform="matrix(1 0 0 1 778.9316 172.5975)" class="st2 st3 st4">demo/</text>
</g>
<g>
	<g>
		<g>
			<rect x="385.87" y="148.94" class="st1" width="58.29" height="36.05"/>
			<rect x="385.87" y="141.05" class="st1" width="20.91" height="7.89"/>
		</g>
	</g>
	<text transform="matrix(1 0 0 1 392.3353 171.6349)" class="st2 st3 st4">populate/</text>
</g>
<g>
	<g>
		<g>
			<rect x="872.81" y="161.3" class="st5" width="58.29" height="36.05"/>
			<rect x="872.81" y="153.42" class="st5" width="20.91" height="7.89"/>
		</g>
	</g>
	<text transform="matrix(1 0 0 1 889.3295 183.999)" class="st6 st3 st4">tests/</text>
</g>
<g>
	<g>
		<g>
			<rect x="872.81" y="393.09" class="st5" width="58.29" height="36.05"/>
			<rect x="872.81" y="385.2" class="st5" width="20.91" height="7.89"/>
		</g>
	</g>
	<text transform="matrix(1 0 0 1 890.067 415.7838)" class="st6 st3 st4">i18n/</text>
</g>
<g>
	<g>
		<rect x="542.2" y="252.51" class="st7" width="134.64" height="69.28"/>
		<rect x="533.12" y="260.69" class="st8" width="18.17" height="7.94"/>
		<rect x="533.12" y="274.75" class="st8" width="18.17" height="7.94"/>
	</g>
	<text transform="matrix(1 0 0 1 577.8268 281.0683)"><tspan x="0" y="0" class="st9 st10">Odoo </tspan><tspan x="-8.22" y="23.8" class="st9 st10">Module</tspan></text>
</g>
<g>
	<polygon class="st11" points="715.51,388.22 715.51,421.49 628.84,421.49 628.84,401.42 642.03,401.42 642.03,388.22 	"/>
	<g>
		<polygon class="st11" points="642.03,388.22 642.03,401.42 628.84,401.42 		"/>
	</g>
</g>
<text transform="matrix(1 0 0 1 631.8639 410.2836)"><tspan x="0" y="0" class="st12 st9 st4">__manifest__.py</tspan><tspan x="80.18" y="0" class="st12 st9 st4 st13">	</tspan></text>
<g>
	<polygon class="st11" points="824.31,388.22 824.31,421.49 737.64,421.49 737.64,401.42 750.83,401.42 750.83,388.22 	"/>
	<g>
		<polygon class="st11" points="750.83,388.22 750.83,401.42 737.64,401.42 		"/>
	</g>
</g>
<text transform="matrix(1 0 0 1 755.3241 410.2835)" class="st12 st9 st4">__init__.py</text>
<g>
	<rect x="385.65" y="392.83" class="st11" width="58.29" height="36.05"/>
	<rect x="385.65" y="384.95" class="st11" width="20.91" height="7.89"/>
</g>
<text transform="matrix(1 0 0 1 393.7355 413.5609)" class="st12 st9 st4">models/</text>
<g>
	<rect x="466.71" y="392.83" class="st11" width="58.29" height="36.05"/>
	<rect x="466.71" y="384.95" class="st11" width="20.91" height="7.89"/>
</g>
<text transform="matrix(1 0 0 1 479.534 413.5606)" class="st12 st9 st4">views/</text>
<g>
	<rect x="547.77" y="392.83" class="st11" width="58.29" height="36.05"/>
	<rect x="547.77" y="384.95" class="st11" width="20.91" height="7.89"/>
</g>
<text transform="matrix(1 0 0 1 554.6133 413.5604)" class="st12 st9 st4">security/</text>
<line class="st7" x1="606.06" y1="321.79" x2="606.06" y2="348.48"/>
<line class="st7" x1="396.1" y1="348.48" x2="777.12" y2="348.48"/>
<line class="st7" x1="777.12" y1="388.22" x2="777.12" y2="348.48"/>
<line class="st7" x1="675.29" y1="388.22" x2="675.29" y2="348.48"/>
<line class="st7" x1="558.23" y1="384.95" x2="558.23" y2="348.48"/>
<line class="st7" x1="477.17" y1="384.95" x2="477.17" y2="348.48"/>
<line class="st7" x1="396.1" y1="384.95" x2="396.1" y2="348.48"/>
<line class="st7" x1="606.79" y1="252.45" x2="606.79" y2="225.76"/>
<line class="st7" x1="794.94" y1="225.76" x2="415.02" y2="225.76"/>
<line class="st7" x1="412.91" y1="184.44" x2="415.02" y2="225.76"/>
<line class="st7" x1="606.79" y1="225.76" x2="606.79" y2="186.64"/>
<line class="st7" x1="794.3" y1="186.64" x2="794.3" y2="225.76"/>
<g>
	<g>
		<g>
			<rect x="578.52" y="150.58" class="st1" width="58.29" height="36.05"/>
			<rect x="578.52" y="142.7" class="st1" width="20.91" height="7.89"/>
		</g>
	</g>
	<text transform="matrix(1 0 0 1 581.0822 173.2775)" class="st2 st3 st4">migrations/</text>
</g>
<g>
	<g>
		<g>
			<rect x="872.81" y="232.42" class="st5" width="58.29" height="36.05"/>
			<rect x="872.81" y="224.53" class="st5" width="20.91" height="7.89"/>
		</g>
	</g>
	<text transform="matrix(1 0 0 1 891.4637 255.1127)" class="st6 st3 st4">doc/</text>
</g>
<g>
	<g>
		<g>
			<rect x="872.81" y="312.75" class="st5" width="58.29" height="36.05"/>
			<rect x="872.81" y="304.87" class="st5" width="20.91" height="7.89"/>
		</g>
	</g>
	<text transform="matrix(1 0 0 1 885.6506 335.4482)" class="st6 st3 st4">report/</text>
</g>
<g>
	<g>
		<g>
			<g>
				<rect x="278.86" y="159.44" class="st5" width="58.29" height="36.05"/>
				<rect x="278.86" y="151.55" class="st5" width="20.91" height="7.89"/>
			</g>
		</g>
		<text transform="matrix(1 0 0 1 288.7376 182.132)" class="st6 st3 st4">wizards/</text>
	</g>
	<g>
		<g>
			<g>
				<rect x="278.86" y="394.96" class="st5" width="58.29" height="36.05"/>
				<rect x="278.86" y="387.07" class="st5" width="20.91" height="7.89"/>
			</g>
		</g>
		<text transform="matrix(1 0 0 1 281.7087 417.6509)" class="st6 st3 st4">controllers/</text>
	</g>
	<g>
		<g>
			<g>
				<rect x="278.86" y="237.94" class="st5" width="58.29" height="36.05"/>
				<rect x="278.86" y="230.06" class="st5" width="20.91" height="7.89"/>
			</g>
		</g>
		<text transform="matrix(1 0 0 1 293.9024 260.6382)" class="st6 st3 st4">static/</text>
	</g>
	<g>
		<g>
			<g>
				<rect x="278.86" y="316.45" class="st5" width="58.29" height="36.05"/>
				<rect x="278.86" y="308.56" class="st5" width="20.91" height="7.89"/>
			</g>
		</g>
		<text transform="matrix(1 0 0 1 295.8984 339.1446)" class="st6 st3 st4">data/</text>
	</g>
</g>
<line class="st7" x1="676.84" y1="287.15" x2="850.42" y2="287.15"/>
<line class="st7" x1="850.42" y1="177.46" x2="850.42" y2="410.28"/>
<line class="st7" x1="871.67" y1="177.46" x2="850.42" y2="177.46"/>
<line class="st7" x1="871.67" y1="255.94" x2="850.42" y2="255.94"/>
<line class="st7" x1="872.81" y1="330.71" x2="850.42" y2="330.71"/>
<line class="st7" x1="872.81" y1="410.28" x2="850.42" y2="410.28"/>
<line class="st7" x1="542.2" y1="287.15" x2="359.54" y2="287.8"/>
<line class="st7" x1="359.54" y1="412.92" x2="359.54" y2="177.46"/>
<line class="st7" x1="337.15" y1="412.92" x2="359.54" y2="412.92"/>
<line class="st7" x1="337.15" y1="335.13" x2="358.65" y2="334.48"/>
<line class="st7" x1="337.15" y1="255.97" x2="359.54" y2="255.97"/>
<line class="st7" x1="337.15" y1="177.46" x2="359.54" y2="177.46"/>
<g>
	<polyline class="st14" points="959.67,442.4 958.69,450.42 966.42,447.38 	"/>
	<path class="st14" d="M931.1,417.84c0.69-0.92,1.51-1.74,2.45-2.44c7.12-5.31,18.66-1.87,25.78,7.68s7.1,21.59-0.02,26.9
		c-0.22,0.17-0.45,0.32-0.68,0.47"/>
</g>
<g>
	<polyline class="st14" points="524.22,465.96 517.54,470.52 524.93,474.31 	"/>
	<path class="st14" d="M523.82,428.28c1.15-0.08,2.3-0.01,3.45,0.23c8.69,1.85,13.72,12.79,11.24,24.43
		c-2.48,11.64-11.53,19.58-20.22,17.73c-0.27-0.06-0.54-0.12-0.8-0.2"/>
</g>
<g>
	<polyline class="st14" points="746.06,452.79 751.04,459.16 755.61,451.74 	"/>
	<path class="st14" d="M749.35,421.49l1.8,36.92c0,0-0.09,0.55-0.15,0.81"/>
</g>
<g>
	<polyline class="st14" points="572.14,459.85 577.12,466.22 581.69,458.8 	"/>
	<path class="st14" d="M575.44,428.55l1.8,36.92c0,0-0.09,0.55-0.15,0.81"/>
</g>
<g>
	<polyline class="st14" points="407.04,110.71 403.74,103.33 397.53,109.44 	"/>
	<path class="st14" d="M396.33,140.31l7.12-36.27c0,0,0.22-0.51,0.34-0.76"/>
</g>
<g>
	<polyline class="st14" points="248.5,152.9 241.42,156.78 247.99,162.49 	"/>
	<path class="st14" d="M278.86,161.22l-36.72-4.21c0,0-0.52-0.18-0.78-0.28"/>
</g>
<g>
	<polyline class="st14" points="962.59,260.73 969.68,256.85 963.1,251.14 	"/>
	<path class="st14" d="M932.23,252.41l36.72,4.21c0,0,0.52,0.18,0.78,0.28"/>
</g>
<g>
	<polyline class="st14" points="247.87,307.67 243.04,314.15 239.56,306.61 	"/>
	<path class="st14" d="M285.51,309.64c0.13-1.14,0.11-2.3-0.09-3.46c-1.49-8.76-12.21-14.24-23.94-12.25
		c-11.74,1.99-20.05,10.71-18.56,19.47c0.05,0.27,0.1,0.54,0.17,0.81"/>
</g>
<g>
	<polyline class="st14" points="634.61,456.46 641.82,460.11 634.99,464.83 	"/>
	<path class="st14" d="M630.15,419.03c-1.15,0.06-2.28,0.29-3.39,0.68c-8.38,2.96-11.96,14.45-7.99,25.68
		c3.96,11.23,13.96,17.93,22.34,14.98c0.26-0.09,0.52-0.19,0.77-0.3"/>
</g>
<g>
	<polyline class="st14" points="250.69,438.05 245.02,432.3 242.6,440.25 	"/>
	<path class="st14" d="M287.7,430.92c0.29,1.11,0.42,2.26,0.39,3.44c-0.27,8.88-10.13,15.79-22.03,15.43
		c-11.9-0.36-21.33-7.84-21.07-16.72c0.01-0.28,0.03-0.55,0.05-0.83"/>
</g>
<g>
	<polyline class="st14" points="415.32,454.97 407.5,452.92 409.48,460.98 	"/>
	<path class="st14" d="M443.5,429.95c0.81,0.81,1.52,1.73,2.09,2.76c4.3,7.77-0.65,18.75-11.07,24.51s-22.35,4.14-26.65-3.63
		c-0.13-0.24-0.26-0.49-0.38-0.74"/>
</g>
<g>
	<polyline class="st14" points="757.81,121.49 763.57,115.82 755.62,113.4 	"/>
	<path class="st14" d="M764.95,158.49c-1.11,0.29-2.26,0.42-3.44,0.39c-8.88-0.27-15.79-10.13-15.43-22.03s7.84-21.33,16.72-21.07
		c0.28,0.01,0.55,0.03,0.83,0.05"/>
</g>
<g>
	<polyline class="st14" points="955.25,363.38 961.48,358.24 963.07,366.39 	"/>
	<path class="st14" d="M919.17,352.5c-0.4,1.08-0.65,2.21-0.74,3.38c-0.64,8.86,8.46,16.74,20.34,17.6
		c11.87,0.86,22.02-5.62,22.66-14.48c0.02-0.28,0.03-0.55,0.03-0.83"/>
</g>
<g>
	<polyline class="st14" points="947.73,132.78 955.75,133.76 952.7,126.04 	"/>
	<path class="st14" d="M923.16,161.36c-0.92-0.69-1.74-1.51-2.44-2.45c-5.31-7.12-1.87-18.66,7.68-25.78
		c9.55-7.11,21.59-7.1,26.9,0.02c0.17,0.22,0.32,0.45,0.47,0.68"/>
</g>
<g>
	<polyline class="st14" points="262.57,202.23 254.55,203.22 257.6,195.49 	"/>
	<path class="st14" d="M287.14,230.81c0.92-0.69,1.74-1.51,2.44-2.45c5.31-7.12,1.87-18.66-7.68-25.78
		c-9.55-7.11-21.59-7.1-26.9,0.02c-0.17,0.22-0.32,0.45-0.47,0.68"/>
</g>
<g>
	<polyline class="st14" points="630.66,118.95 623.21,115.81 629.7,110.62 	"/>
	<path class="st14" d="M637.75,155.96c1.14-0.15,2.26-0.45,3.34-0.92c8.15-3.54,10.91-15.26,6.16-26.18s-15.19-16.9-23.34-13.36
		c-0.25,0.11-0.5,0.23-0.75,0.36"/>
</g>
<text transform="matrix(1 0 0 1 646.3778 462.5094)" class="st3 st4">Module metadata</text>
<text transform="matrix(1 0 0 1 755.6066 474.314)" class="st3 st4">Python initializer</text>
<text transform="matrix(1 0 0 1 327.2704 446.413)" class="st3 st4">Business logic models</text>
<text transform="matrix(1 0 0 1 455.7646 470.9479)" class="st3 st4">UI XML views</text>
<text transform="matrix(1 0 0 1 174.4784 335.4477)" class="st3 st4">Default data records</text>
<text transform="matrix(1 0 0 1 177.5657 214.0347)" class="st3 st4">Frontend assets</text>
<text transform="matrix(1 0 0 1 164.9166 421.4907)" class="st3 st4">Web/API controllers</text>
<text transform="matrix(1 0 0 1 155.4368 156.7388)" class="st3 st4">Popup form logic</text>
<text transform="matrix(1 0 0 1 951.7367 350.8579)" class="st3 st15">PDF/HTML reports</text>
<text transform="matrix(1 0 0 1 932.2302 463.5231)" class="st3 st15">Translations</text>
<text transform="matrix(1 0 0 1 959.9026 128.4797)" class="st3 st15">Unit tests</text>
<text transform="matrix(1 0 0 1 365.79 93.0852)" class="st3 st15">Demo data scripts</text>
<text transform="matrix(1 0 0 1 976.983 264.6624)" class="st3 st15">Module documentation</text>
<text transform="matrix(1 0 0 1 539.1406 119.0109)" class="st3 st15">Upgrade scripts</text>
<text transform="matrix(1 0 0 1 767.8751 118.879)" class="st3 st15">Demo XML data</text>
<text transform="matrix(1 0 0 1 468.6498 35.0827)" class="st9 st16">Odoo  Module Structure</text>
<text transform="matrix(1 0 0 1 729.8861 53.6044)" class="st17 st3 st18">ODOO 14 +</text>
<g>
	<g>
		<g>
			<circle class="st12" cx="351.78" cy="590.73" r="5.31"/>
			<text transform="matrix(1 0 0 1 369.4886 593.8282)" class="st12 st9 st4">Required Folders &amp; Files</text>
		</g>
		<g>
			<circle class="st6" cx="567.77" cy="590.73" r="5.31"/>
			<g>
				<text transform="matrix(1 0 0 1 585.5861 593.8282)" class="st6 st3 st4">Optional But Common</text>
			</g>
		</g>
		<g>
			<circle class="st2" cx="766.98" cy="590.73" r="5.31"/>
			<text transform="matrix(1 0 0 1 784.799 593.8282)" class="st2 st3 st4">Less Common But Valid</text>
		</g>
	</g>
	<text transform="matrix(1 0 0 1 610.1916 477.1273)" class="st3 st4">Access control rules</text>
	<text transform="matrix(1 0 0 1 300.4653 570.1624)" class="st3 st19">Note :</text>
	<rect x="291.86" y="546" class="st14" width="616.29" height="69.94"/>
</g>
</svg>
